#define desk_toggled_width 8
#define desk_toggled_height 8
static unsigned char desk_toggled_bits[] = {
    0x81, 0x5a, 0x24, 0x42, 0x42, 0x24, 0x5a, 0x81
};
